<svg id="Layer_1" data-name="Layer 1" xmlns="http://www.w3.org/2000/svg" viewBox="0 0 1920 1080"><defs><style>.cls-1{fill:#867cf4;}.cls-2{fill:none;}.cls-3{fill:#fff;}.cls-4{fill:#514b8d;}.cls-5{fill:#aaa0f9;}.cls-6{fill:#715bbc;}.cls-7{fill:#685bad;}.cls-8{fill:#9f89fb;}.cls-9{fill:#afa2fb;}</style></defs><title>Artboard 1</title><path class="cls-1" d="M69.89,1080H0V835.69l-.57.57v247.2H66.94a6.8,6.8,0,0,1,1.28-1.79Z"/><polygon class="cls-2" points="1919.43 662.67 1920 662.09 1920 577.49 1919.43 578.07 1919.43 662.67"/><polygon class="cls-2" points="1919.43 826.7 1920 826.12 1920 685.46 1919.43 686.03 1919.43 826.7"/><polygon class="cls-2" points="1920 56.88 1920 0 1919.43 0 1919.43 57.45 1920 56.88"/><polygon class="cls-2" points="1920 836.63 1919.43 837.21 1919.43 1080 1920 1080 1920 836.63"/><polygon class="cls-2" points="1919.43 543.51 1920 542.94 1920 80.24 1919.43 80.81 1919.43 543.51"/><path class="cls-1" d="M1894.67,862a3.72,3.72,0,0,1-5.26-5.26l30-30V686l-28.81,28.81a8.26,8.26,0,0,1-11.68-11.68l40.49-40.49v-84.6l-.44.44a12.25,12.25,0,0,1-17.28,0h0a12.25,12.25,0,0,1,0-17.28l17.72-17.72V80.81l-20.31,20.31a8.26,8.26,0,1,1-11.68-11.68l32-32V0H1760.35L1734,26.35a6.87,6.87,0,0,1-9.72-9.72L1740.91,0H1183.53l-48.72,48.72A8.26,8.26,0,0,1,1123.13,37l37-37H1040.6l-39.82,39.82a3.72,3.72,0,0,1-5.26-5.26L1030.09,0H785.51L614.12,171.38a8.24,8.24,0,0,1-14-4.9L561.52,205a3.72,3.72,0,0,1-5.26-5.26L756.06,0H709.32L668.54,40.77a31.91,31.91,0,0,1-45,0,31.52,31.52,0,0,1-7-10.71l-23,23a3.72,3.72,0,1,1-5.26-5.26l26.22-26.22A31.91,31.91,0,0,1,620,0H582.59l-33.7,33.7a17.32,17.32,0,0,1-13.75,5L487.52,86.31a31.57,31.57,0,0,1,17.33,11.94l20.5-20.5a7.09,7.09,0,0,1,10,10L510.6,112.56a31.81,31.81,0,0,1-9,26.9L431,210.11a31.82,31.82,0,1,1-45-45l4.34-4.34a49,49,0,0,1-25.68-8.66l-35.81,35.81a3.72,3.72,0,0,1-5.26-5.26l35.27-35.27c-.31-.29-.63-.58-.93-.88h0a48.76,48.76,0,0,1-6.53-8.12L318.49,171.3a49,49,0,0,1-75.9-8.09L192.5,213.3a8.26,8.26,0,1,1-11.68-11.68l55-55a49.12,49.12,0,0,1,13.28-44.7L351,0H299.45L263.6,35.85a12.19,12.19,0,0,1-20.82-9.06l-6.43,6.43a19.05,19.05,0,0,1-26.87,0h0a19.05,19.05,0,0,1,0-26.87L215.84,0h-58L156,1.76a8.24,8.24,0,0,1,6.17,14.07L110.77,67.29A8.26,8.26,0,0,1,99.09,55.61l31.2-31.2a3.67,3.67,0,0,1-1.3-.84,3.73,3.73,0,0,1,0-5.26L147.3,0H55.7L50.63,5.07A8.28,8.28,0,0,1,39,5.07,8.21,8.21,0,0,1,36.58,0H0V812.33l103-103A8.26,8.26,0,1,1,114.68,721L0,835.69V1080H69.89l27-27a6.87,6.87,0,0,1,9.72,9.72L89.34,1080h77.6a12,12,0,0,1,1.92-2.51l50.93-50.93a12.22,12.22,0,0,1,17.28,17.28L200.89,1080H332l6.72-6.72a3.72,3.72,0,1,1,5.26,5.26l-1.46,1.46h265.4a3.72,3.72,0,0,1,5.17,0H961.94l45.88-45.88a17.34,17.34,0,0,1,24.53,24.53L1011,1080h41a6.89,6.89,0,0,1,1.64-7.06l28.66-28.66a6.87,6.87,0,1,1,9.72,9.72l-26,26h28.52a48.52,48.52,0,0,1,8.86-12.17l260-260a49.12,49.12,0,0,1,44.7-13.28l218.28-218.28a8.26,8.26,0,0,1,11.68,11.68L1424.74,801.31a48.77,48.77,0,0,1,8.09,6.52h0a48.77,48.77,0,0,1,6.53,8.12L1472.26,783a49.22,49.22,0,0,1,66.89-2.31l69.14-69.14a3.72,3.72,0,1,1,5.26,5.26L1544.37,786a48.55,48.55,0,0,1,8.6,14.79l52-52a17.34,17.34,0,0,1,24.53,24.53L1403.23,999.62a17.32,17.32,0,0,1-13.75,5l-47.63,47.63a31.53,31.53,0,0,1,14.11,8.16h0a31.71,31.71,0,0,1,3.23,3.78l20.5-20.5a7.09,7.09,0,0,1,10,10l-24.78,24.78c.07.5.1,1,.15,1.52h44.82l26.29-26.29a19.06,19.06,0,0,1,23.6-2.6l7.14-7.14a8.13,8.13,0,0,1,11.5,11.5l-8.16,8.16a8.05,8.05,0,0,1-1.81,1.35,19,19,0,0,1-4.87,15h32.71L1676,900.27a3.73,3.73,0,0,1,5.26,0,3.66,3.66,0,0,1,.37.46l3.17-3.17a8.26,8.26,0,0,1,11.68,11.68L1525.76,1080h23.46l17.32-17.32a12.25,12.25,0,0,1,13.54-2.54l36.48-36.48a31.82,31.82,0,0,1,45,45L1650.22,1080h97.56l4.32-4.32A3.71,3.71,0,0,1,1758,1080h161.41V837.21ZM413.08,256.57,581.86,87.79a19.06,19.06,0,0,1,23.6-2.6l7.14-7.14a8.13,8.13,0,0,1,11.5,11.5l-8.16,8.16a8.06,8.06,0,0,1-1.81,1.35,19,19,0,0,1-5.41,15.59L439.94,283.44a19,19,0,0,1-26.87-26.87ZM277.84,784.1a6.89,6.89,0,0,1,0,9.72l-28.66,28.66a6.87,6.87,0,0,1-9.72-9.72l28.66-28.66A6.89,6.89,0,0,1,277.84,784.1Zm-50.22-143,8.16-8.16a8.13,8.13,0,0,1,11.5,11.5l-8.16,8.16a8.13,8.13,0,0,1-11.5-11.5ZM199.35,107,228,78.36a6.87,6.87,0,1,1,9.72,9.72l-28.66,28.66a6.87,6.87,0,1,1-9.72-9.72Zm-91.53,55.92A17.34,17.34,0,0,1,83.28,138.4L153.49,68.2A17.34,17.34,0,1,1,178,92.73Zm-5.55,609.81,8.16-8.16a8.13,8.13,0,0,1,11.5,11.5l-8.16,8.16a8.13,8.13,0,0,1-11.5-11.5ZM23.7,913.86h0a12.25,12.25,0,0,1,0-17.28l50.93-50.93a12.25,12.25,0,0,1,17.28,0h0a12.25,12.25,0,0,1,0,17.28L41,913.86A12.25,12.25,0,0,1,23.7,913.86Zm59.35,86.67a3.72,3.72,0,0,1-5.26-5.26L189.95,883.13a3.72,3.72,0,0,1,5.26,5.26Zm117.53-79.3-8.16,8.16a8.13,8.13,0,0,1-11.5-11.5l8.16-8.16a8.13,8.13,0,1,1,11.5,11.5ZM176.26,789.51a3.72,3.72,0,1,1-5.26-5.26l66-66a3.72,3.72,0,0,1,5.26,5.26Zm114.52,95.24L248,926.59a10.45,10.45,0,0,1-14.51,0,9.92,9.92,0,0,1,0-14.2l42.76-41.85a10.45,10.45,0,0,1,14.51,0A9.92,9.92,0,0,1,290.78,884.75Zm18.08-165.06-8.16,8.16a8.13,8.13,0,0,1-11.5-11.5l8.16-8.16a8.13,8.13,0,0,1,11.5,11.5Zm75.29,170.56-66,66a3.72,3.72,0,1,1-5.26-5.26l66-66a3.72,3.72,0,0,1,5.26,5.26Zm-48.91-75.53,8.16-8.16a8.13,8.13,0,0,1,11.5,11.5l-8.16,8.16a8.13,8.13,0,0,1-11.5-11.5Zm63.3-211.33-66,66a3.72,3.72,0,0,1-5.26-5.26l66-66a3.72,3.72,0,1,1,5.26,5.26Zm-8.92-215.57a8.28,8.28,0,0,1,0-11.68L505.22,260.54a8.26,8.26,0,0,1,11.68,11.68L401.31,387.81A8.28,8.28,0,0,1,389.63,387.81Zm65.11,514.4-8.16,8.16a8.13,8.13,0,1,1-11.5-11.5l8.16-8.16a8.13,8.13,0,0,1,11.5,11.5Zm15.63,95.6-28.66,28.66a6.87,6.87,0,0,1-9.72-9.72l28.66-28.66a6.87,6.87,0,0,1,9.72,9.72Zm77-204.27-66,66a3.72,3.72,0,0,1-5.26-5.26l66-66a3.72,3.72,0,0,1,5.26,5.26ZM1581.07,48.82l28.66-28.66a6.87,6.87,0,0,1,9.72,9.72l-28.66,28.66a6.87,6.87,0,0,1-9.72-9.72Zm-88,56.54a3.73,3.73,0,0,1,0,5.26L1380.92,222.76a3.72,3.72,0,0,1-5.26-5.26l112.15-112.15A3.73,3.73,0,0,1,1493.07,105.35ZM1449.9,588.79l-66,66a3.72,3.72,0,0,1-5.26-5.26l66-66a3.72,3.72,0,1,1,5.26,5.26Zm-132-479.24,50.93-50.93a12.22,12.22,0,0,1,17.28,17.28l-50.93,50.93a12.25,12.25,0,0,1-17.28,0h0A12.25,12.25,0,0,1,1317.93,109.55Zm54,525.41L1143.86,863a8.26,8.26,0,0,1-11.68-11.68l228.06-228.06A8.26,8.26,0,1,1,1371.92,635ZM1217.31,113.74,1246,85.08a6.87,6.87,0,0,1,9.72,9.72L1227,123.46a6.87,6.87,0,0,1-9.72-9.72ZM1124.82,720l28.66-28.66a6.87,6.87,0,1,1,9.72,9.72l-28.66,28.66a6.87,6.87,0,1,1-9.72-9.72Zm.12,76.3,8.16-8.16a8.13,8.13,0,0,1,11.5,11.5l-8.16,8.16a8.13,8.13,0,0,1-11.5-11.5ZM1011.73,72.94l8.16-8.16a8.13,8.13,0,1,1,11.5,11.5l-8.16,8.16a8.13,8.13,0,0,1-11.5-11.5Zm-15.92,82.83a8.26,8.26,0,0,1,11.68,11.68L956,218.9a8.28,8.28,0,0,1-11.68,0h0a8.28,8.28,0,0,1,0-11.68Zm-1,568.61-8.16,8.16a8.13,8.13,0,0,1-11.5-11.5l8.16-8.16a8.13,8.13,0,0,1,11.5,11.5ZM931.86,46,940,37.84a8.13,8.13,0,0,1,11.5,11.5l-8.16,8.16A8.13,8.13,0,0,1,931.86,46ZM916.7,852.86l-50.93,50.93a12.22,12.22,0,0,1-17.28-17.28l50.93-50.93a12.22,12.22,0,0,1,17.28,17.28ZM750.46,866.32a3.72,3.72,0,1,1-5.26-5.26L857.35,748.91a3.72,3.72,0,1,1,5.26,5.26Zm88.81-711.65,66-66a3.73,3.73,0,0,1,5.26,0h0a3.73,3.73,0,0,1,0,5.26l-66,66a3.72,3.72,0,1,1-5.26-5.26ZM654.12,1040.74,646,1048.9a8.13,8.13,0,1,1-11.5-11.5l8.16-8.16a8.13,8.13,0,0,1,11.5,11.5Zm3.09-117.88-28.66,28.66a6.87,6.87,0,0,1-9.72-9.72l28.66-28.66a6.87,6.87,0,1,1,9.72,9.72Zm22.48-103.14-29.57,29.57a7.09,7.09,0,0,1-10-10l29.57-29.57a7.09,7.09,0,0,1,10,10Zm3.92-659.79-5,5a12.22,12.22,0,0,1-17.28-17.28l50.93-50.93a12.25,12.25,0,0,1,13.54-2.54l36.48-36.48a31.82,31.82,0,1,1,45,45l-70.64,70.64a31.91,31.91,0,0,1-45,0A31.54,31.54,0,0,1,683.6,159.92ZM734,1067.68l-8.16,8.16a8.13,8.13,0,0,1-11.5-11.5l8.16-8.16a8.13,8.13,0,1,1,11.5,11.5ZM769.4,965.19l-66,66a3.72,3.72,0,1,1-5.26-5.26l66-66a3.72,3.72,0,0,1,5.26,5.26Zm49.08,8.17,8.16-8.16a8.13,8.13,0,0,1,11.5,11.5L830,984.86a8.13,8.13,0,0,1-11.5-11.5Zm7.25,66.76a8.28,8.28,0,0,1,0-11.68l228.06-228.06a8.26,8.26,0,1,1,11.68,11.68L837.4,1040.12A8.28,8.28,0,0,1,825.72,1040.12ZM1054.6,923.46l-44.22,44.22a8.24,8.24,0,0,1,6.17,14.07l-51.45,51.45a8.26,8.26,0,1,1-11.68-11.68l31.2-31.2a3.67,3.67,0,0,1-1.3-.84,3.73,3.73,0,0,1,0-5.26l66-66a3.72,3.72,0,0,1,5.26,5.26Zm204.87-93.11L1159.81,930a12.19,12.19,0,0,1,9.06,20.82l-50.93,50.93a12.25,12.25,0,0,1-17.28,0h0a12.18,12.18,0,0,1-3.54-9.06l-6.43,6.43a19,19,0,0,1-26.87-26.87l168.79-168.79a19.05,19.05,0,0,1,25-1.64l32-32a3.72,3.72,0,0,1,5.26,5.26l-32.37,32.37A19.06,19.06,0,0,1,1259.48,830.35Zm56.26-8.1-29.57,29.57a7.09,7.09,0,0,1-10-10l29.57-29.57a7.09,7.09,0,0,1,10,10Zm231.61-207.05-8.16,8.16a8.13,8.13,0,1,1-11.5-11.5l8.16-8.16a8.13,8.13,0,0,1,11.5,11.5Zm22.57-69.4-83.26,83.26a31.91,31.91,0,0,1-.57,44.4l-98.68,98.68a31.65,31.65,0,0,1-19.55,9.14l-15.19,15.19a3.72,3.72,0,0,1-5.26-5.26L1358,780.64a31.55,31.55,0,0,1-15.56-8.51,31.91,31.91,0,0,1,0-45l98.68-98.68a31.94,31.94,0,0,1,39.82-4.18l83.74-83.74a3.72,3.72,0,0,1,5.26,5.26Zm28.27-413.38L1568.62,162a7.09,7.09,0,0,1-10-10l29.57-29.57a7.09,7.09,0,0,1,10,10Zm62.95,708.24-32.7,32.7a31.93,31.93,0,0,1-6.88,34.66l-98.68,98.68a31.91,31.91,0,0,1-45,0,31.52,31.52,0,0,1-7-10.71l-23,23a3.72,3.72,0,0,1-5.26-5.26l26.22-26.22a31.79,31.79,0,0,1,9.1-25.84L1576.56,863a31.93,31.93,0,0,1,34.58-6.92l32.72-32.72a12.22,12.22,0,1,1,17.28,17.28Zm5.21-80.64-66,66a3.72,3.72,0,0,1-5.26-5.26l66-66a3.72,3.72,0,0,1,5.26,5.26Zm8.5-613.72-66,66a3.72,3.72,0,1,1-5.26-5.26l66-66a3.72,3.72,0,0,1,5.26,5.26Zm216.49,505.13-8.16,8.16a8.13,8.13,0,1,1-11.5-11.5l8.16-8.16a8.13,8.13,0,1,1,11.5,11.5Zm19.22-227.79a3.72,3.72,0,0,1,5.26,5.26L1803.67,541a3.72,3.72,0,1,1-5.26-5.26Zm-88,216.28-66,66a3.72,3.72,0,0,1-5.26-5.26l66-66a3.72,3.72,0,1,1,5.26,5.26Zm57.58-605.55,8.16-8.16a8.13,8.13,0,0,1,11.5,11.5l-8.16,8.16a8.13,8.13,0,0,1-11.5-11.5ZM1759.83,87l66-66a3.72,3.72,0,0,1,5.26,5.26l-66,66a3.72,3.72,0,0,1-5.26-5.26Zm-5,79.05,8.16-8.16a8.13,8.13,0,0,1,11.5,11.5l-8.16,8.16a8.13,8.13,0,1,1-11.5-11.5Zm-61.57-75.26,8.16-8.16a8.13,8.13,0,0,1,11.5,11.5l-8.16,8.16a8.13,8.13,0,1,1-11.5-11.5Zm11.16,617.06-8.16,8.16a8.13,8.13,0,1,1-11.5-11.5l8.16-8.16a8.13,8.13,0,1,1,11.5,11.5Zm-1.58-154.2a9.92,9.92,0,0,1,0-14.2l42.77-41.85a10.45,10.45,0,0,1,14.51,0,9.92,9.92,0,0,1,0,14.2l-42.76,41.85A10.45,10.45,0,0,1,1702.84,553.62Zm12.94,86.45a6.9,6.9,0,0,1,0-9.72l28.66-28.66a6.87,6.87,0,0,1,9.72,9.72l-28.66,28.66A6.89,6.89,0,0,1,1715.78,640.07Zm42.06,151.17a8.13,8.13,0,1,1-11.5-11.5l8.16-8.16a8.13,8.13,0,0,1,11.5,11.5Zm40.5,245.14-8.16,8.16a8.13,8.13,0,0,1-11.5-11.5l8.16-8.16a8.13,8.13,0,0,1,11.5,11.5Zm3.09-117.88-28.66,28.66a6.87,6.87,0,0,1-9.72-9.72l28.66-28.66a6.87,6.87,0,1,1,9.72,9.72Zm22.48-103.14-29.57,29.57a7.09,7.09,0,1,1-10-10l29.57-29.57a7.09,7.09,0,0,1,10,10Zm54.31,248-8.16,8.16a8.13,8.13,0,0,1-11.5-11.5l8.16-8.16a8.13,8.13,0,0,1,11.5,11.5Zm-30.62-36.46a3.72,3.72,0,0,1-5.26-5.26l66-66a3.72,3.72,0,0,1,5.26,5.26Z"/><path class="cls-3" d="M1638.11,587.94a8.26,8.26,0,0,0-11.68-11.68L1408.15,794.54a48.81,48.81,0,0,1,16.6,6.76Z"/><path class="cls-4" d="M1032.35,1058.65a17.34,17.34,0,0,0-24.53-24.53L961.94,1080H1011Z"/><path class="cls-5" d="M1681.3,905.52,1506.82,1080h18.94l170.76-170.76a8.26,8.26,0,0,0-11.68-11.68l-3.17,3.17A3.72,3.72,0,0,1,1681.3,905.52Z"/><path class="cls-5" d="M1360.24,623.29,1132.18,851.35A8.26,8.26,0,0,0,1143.86,863L1371.92,635a8.26,8.26,0,1,0-11.68-11.68Z"/><path class="cls-5" d="M984.62,990.32l-31.2,31.2a8.26,8.26,0,1,0,11.68,11.68l51.45-51.45a8.24,8.24,0,0,0-6.17-14.07l-21.81,21.81A3.72,3.72,0,0,1,984.62,990.32Z"/><path class="cls-4" d="M1228.83,841.1a3.73,3.73,0,0,1-5.26,0h0a3.73,3.73,0,0,1,0-5.26l34-34a19.05,19.05,0,0,0-25,1.64L1063.82,972.27a19,19,0,0,0,26.87,26.87l6.43-6.43a12.16,12.16,0,0,1,3.54-8.22l50.93-50.93a12.16,12.16,0,0,1,8.22-3.54l99.67-99.67a19.06,19.06,0,0,0,3-22.9Z"/><path class="cls-6" d="M1212.25,1043.05l227.11-227.11a48.77,48.77,0,0,0-6.53-8.12h0a49.21,49.21,0,0,0-69.39,0l-260,260a48.52,48.52,0,0,0-8.86,12.17H1198A48.94,48.94,0,0,1,1212.25,1043.05Zm42.62-98.73,28.66-28.66a6.87,6.87,0,1,1,9.72,9.72L1264.6,954a6.87,6.87,0,0,1-9.72-9.72Z"/><path class="cls-7" d="M1592.93,891.59a12.25,12.25,0,0,1,0-17.28l18.21-18.21a31.93,31.93,0,0,0-34.58,6.92l-98.68,98.68a31.79,31.79,0,0,0-9.1,25.84l39.8-39.8a3.72,3.72,0,0,1,5.26,5.26l-43,43a31.52,31.52,0,0,0,7,10.71,31.91,31.91,0,0,0,45,0L1621.55,908a31.93,31.93,0,0,0,6.88-34.66l-18.23,18.23A12.25,12.25,0,0,1,1592.93,891.59Z"/><path class="cls-8" d="M1365.08,1080c0-.51-.08-1-.15-1.52l-1.52,1.52Z"/><path class="cls-8" d="M1348.27,1080a7.1,7.1,0,0,1,1.85-6.76l9.07-9.07a31.71,31.71,0,0,0-3.23-3.78h0a31.53,31.53,0,0,0-14.11-8.16L1314.08,1080Z"/><path class="cls-8" d="M1583.82,1062.68a12.25,12.25,0,0,1,0,17.28l0,0h66.44l11.34-11.34a31.82,31.82,0,0,0-45-45l-36.48,36.48a12.09,12.09,0,0,1,3.74,2.54Z"/><path class="cls-9" d="M1468.47,1065a8.13,8.13,0,0,1-9.7-12.85l1-1a19.06,19.06,0,0,0-23.6,2.6L1409.9,1080h53.7A19,19,0,0,0,1468.47,1065Z"/><path class="cls-4" d="M1198,1080h116.07l27.77-27.77,47.63-47.63a17.31,17.31,0,0,1-10.78-29.52L1553,800.82a48.55,48.55,0,0,0-8.6-14.79L1348.11,982.29a3.72,3.72,0,0,1-5.26-5.26l196.3-196.3a49.22,49.22,0,0,0-66.89,2.31l-32.89,32.89-227.11,227.11A48.94,48.94,0,0,0,1198,1080Zm72.5-40.07,8.16-8.16a8.13,8.13,0,0,1,11.5,11.5l-8.16,8.16a8.13,8.13,0,0,1-11.5-11.5Z"/><path class="cls-6" d="M1378.7,999.62a17.41,17.41,0,0,0,24.53,0l226.26-226.26A17.34,17.34,0,0,0,1605,748.83l-52,52L1378.7,975.09A17.4,17.4,0,0,0,1378.7,999.62Z"/><path class="cls-9" d="M1643.86,823.38l-32.72,32.72-18.21,18.21a12.22,12.22,0,0,0,17.28,17.28l18.23-18.23,32.7-32.7a12.22,12.22,0,1,0-17.28-17.28Z"/><path class="cls-9" d="M1100.66,984.49a12.28,12.28,0,0,0,0,17.28h0a12.25,12.25,0,0,0,17.28,0l50.93-50.93a12.22,12.22,0,0,0-17.28-17.28Z"/><path class="cls-6" d="M1305.71,812.22l-29.57,29.57a7.09,7.09,0,0,0,10,10l29.57-29.57a7.09,7.09,0,0,0-10-10Z"/><path class="cls-7" d="M1348.27,1080h15.15l1.52-1.52,24.78-24.78a7.09,7.09,0,0,0-10-10l-20.5,20.5-9.07,9.07A7.1,7.1,0,0,0,1348.27,1080Z"/><path class="cls-9" d="M1342.85,982.29a3.73,3.73,0,0,0,5.26,0L1544.37,786l69.18-69.18a3.72,3.72,0,1,0-5.26-5.26l-69.14,69.14L1342.85,977A3.73,3.73,0,0,0,1342.85,982.29Z"/><path class="cls-9" d="M1564.66,540.54l-83.74,83.74a31.62,31.62,0,0,1,5.17,4.18c.19.19.38.4.57.6l83.26-83.26a3.72,3.72,0,0,0-5.26-5.26Z"/><path class="cls-9" d="M1681.3,905.52a3.72,3.72,0,0,0,.37-4.8,3.66,3.66,0,0,0-.37-.46,3.73,3.73,0,0,0-5.26,0L1496.31,1080h10.51Z"/><path class="cls-9" d="M1049.35,918.21l-66,66a3.73,3.73,0,0,0,0,5.26,3.67,3.67,0,0,0,1.3.84,3.72,3.72,0,0,0,4-.84l21.81-21.81,44.22-44.22a3.72,3.72,0,0,0-5.26-5.26Z"/><path class="cls-4" d="M1513.84,947.73a3.73,3.73,0,0,0-5.26,0l-39.8,39.8-26.22,26.22a3.72,3.72,0,0,0,5.26,5.26l23-23,43-43A3.73,3.73,0,0,0,1513.84,947.73Z"/><path class="cls-4" d="M1444.64,583.53l-66,66a3.72,3.72,0,0,0,5.26,5.26l66-66a3.72,3.72,0,1,0-5.26-5.26Z"/><path class="cls-9" d="M1223.57,841.1h0a3.73,3.73,0,0,0,5.26,0l33.66-33.66,32.37-32.37a3.72,3.72,0,0,0-5.26-5.26l-32,32-34,34A3.73,3.73,0,0,0,1223.57,841.1Z"/><path class="cls-7" d="M1092.06,1054a6.87,6.87,0,1,0-9.72-9.72l-28.66,28.66A6.89,6.89,0,0,0,1052,1080h14Z"/><path class="cls-4" d="M1264.6,954l28.66-28.66a6.87,6.87,0,1,0-9.72-9.72l-28.66,28.66a6.87,6.87,0,0,0,9.72,9.72Z"/><path class="cls-7" d="M1583.82,1080a12.25,12.25,0,0,0,0-17.28h0a12.09,12.09,0,0,0-3.74-2.54,12.25,12.25,0,0,0-13.54,2.54L1549.22,1080h34.56Z"/><path class="cls-5" d="M1535.84,603.69l-8.16,8.16a8.13,8.13,0,1,0,11.5,11.5l8.16-8.16a8.13,8.13,0,0,0-11.5-11.5Z"/><path class="cls-7" d="M1136.43,807.77l8.16-8.16a8.13,8.13,0,0,0-11.5-11.5l-8.16,8.16a8.13,8.13,0,0,0,11.5,11.5Z"/><path class="cls-7" d="M1480.92,624.28a31.94,31.94,0,0,0-39.82,4.18l-98.68,98.68a31.91,31.91,0,0,0,0,45,31.55,31.55,0,0,0,15.56,8.51L1459.57,679a3.72,3.72,0,0,1,5.26,5.26l-97,97a31.65,31.65,0,0,0,19.55-9.14l98.68-98.68a31.91,31.91,0,0,0,.57-44.4c-.19-.2-.37-.4-.57-.6A31.62,31.62,0,0,0,1480.92,624.28Z"/><path class="cls-4" d="M1464.83,679a3.73,3.73,0,0,0-5.26,0L1358,780.64l-10.56,10.56a3.72,3.72,0,0,0,5.26,5.26l15.19-15.19,97-97A3.73,3.73,0,0,0,1464.83,679Z"/><path class="cls-7" d="M1282,1051.43l8.16-8.16a8.13,8.13,0,0,0-11.5-11.5l-8.16,8.16a8.13,8.13,0,0,0,11.5,11.5Z"/><path class="cls-6" d="M1458.77,1063.63a8.16,8.16,0,0,0,9.7,1.35,8.05,8.05,0,0,0,1.81-1.35l8.16-8.16a8.13,8.13,0,0,0-11.5-11.5l-7.14,7.14-1,1A8.16,8.16,0,0,0,1458.77,1063.63Z"/><path class="cls-3" d="M180.82,201.62A8.26,8.26,0,1,0,192.5,213.3l50.08-50.08a48.8,48.8,0,0,1-6.76-16.6Z"/><path class="cls-4" d="M178,68.2a17.4,17.4,0,0,0-24.53,0L83.28,138.4a17.34,17.34,0,0,0,24.53,24.53L178,92.73A17.4,17.4,0,0,0,178,68.2Z"/><path class="cls-5" d="M600.09,166.48a8.24,8.24,0,0,0,14,4.9L785.51,0H766.57Z"/><path class="cls-5" d="M516.9,260.54a8.28,8.28,0,0,0-11.68,0L389.63,376.13a8.26,8.26,0,1,0,11.68,11.68L516.9,272.22A8.28,8.28,0,0,0,516.9,260.54Z"/><path class="cls-5" d="M130.29,24.4l-31.2,31.2a8.26,8.26,0,0,0,11.68,11.68l51.45-51.45A8.24,8.24,0,0,0,156,1.76L134.24,23.57A3.72,3.72,0,0,1,130.29,24.4Z"/><path class="cls-4" d="M264.9,0H215.84l-6.35,6.35a19.05,19.05,0,0,0,0,26.87h0a19.05,19.05,0,0,0,26.87,0l6.43-6.43a12.16,12.16,0,0,1,3.54-8.22Z"/><path class="cls-6" d="M357.92,77.13,435.05,0H351L249.11,101.91a49.06,49.06,0,0,0,69.39,69.39l32.89-32.89A49.25,49.25,0,0,1,357.92,77.13Z"/><path class="cls-7" d="M620,0a31.91,31.91,0,0,0-5.56,21.61L636.06,0Z"/><path class="cls-7" d="M616.51,30.06a31.52,31.52,0,0,0,7,10.71,31.91,31.91,0,0,0,45,0L709.32,0H646.57Z"/><path class="cls-8" d="M390.32,160.78,386,165.11a31.82,31.82,0,1,0,45,45l70.64-70.64a31.81,31.81,0,0,0,9-26.9l-4.79,4.79a7.09,7.09,0,0,1-10-10l9.07-9.07a31.57,31.57,0,0,0-17.33-11.94l-60.21,60.21A49,49,0,0,1,390.32,160.78Z"/><path class="cls-8" d="M736.58,173.38l70.64-70.64a31.82,31.82,0,1,0-45-45L725.75,94.22a12.09,12.09,0,0,1,3.74,2.54,12.25,12.25,0,0,1,0,17.28L683.6,159.92a31.54,31.54,0,0,0,8,13.46A31.91,31.91,0,0,0,736.58,173.38Z"/><path class="cls-9" d="M439.94,283.44,608.73,114.65a19,19,0,0,0,5.41-15.59,8.13,8.13,0,0,1-9.7-12.85l1-1a19.06,19.06,0,0,0-23.6,2.6L413.08,256.57a19,19,0,0,0,26.87,26.87Z"/><path class="cls-4" d="M524.36,9.17,533.53,0H510.14L493.77,16.37a3.72,3.72,0,0,1-5.26-5.26L499.63,0H435.05L357.92,77.13a49.25,49.25,0,0,0-6.53,61.27,48.76,48.76,0,0,0,6.53,8.12h0c.3.3.62.59.93.88l30.76-30.76a3.72,3.72,0,0,1,5.26,5.26l-30.22,30.22a49.23,49.23,0,0,0,62.66-5.6l60.21-60.21,47.63-47.63A17.31,17.31,0,0,1,524.36,9.17ZM435.84,77.35l-8.16,8.16A8.13,8.13,0,1,1,416.17,74l8.16-8.16a8.13,8.13,0,1,1,11.5,11.5Z"/><path class="cls-6" d="M524.36,9.17A17.34,17.34,0,0,0,548.89,33.7L582.59,0H533.53Z"/><path class="cls-9" d="M246.33,18.57A12.22,12.22,0,0,0,263.6,35.85L299.45,0H264.9Z"/><path class="cls-7" d="M495.78,117.35a7.11,7.11,0,0,0,10,0l4.79-4.79,24.78-24.78a7.09,7.09,0,0,0-10-10l-20.5,20.5-9.07,9.07A7.11,7.11,0,0,0,495.78,117.35Z"/><path class="cls-9" d="M488.52,16.37a3.73,3.73,0,0,0,5.26,0L510.14,0H499.63L488.52,11.11A3.73,3.73,0,0,0,488.52,16.37Z"/><path class="cls-9" d="M756.06,0,556.27,199.79a3.72,3.72,0,0,0,5.26,5.26l38.57-38.57L766.57,0Z"/><path class="cls-9" d="M394.86,116.65a3.73,3.73,0,0,0-5.26,0L358.85,147.4l-35.27,35.27a3.72,3.72,0,0,0,5.26,5.26l35.81-35.81,30.22-30.22A3.73,3.73,0,0,0,394.86,116.65Z"/><path class="cls-9" d="M129,18.31a3.73,3.73,0,0,0,0,5.26,3.67,3.67,0,0,0,1.3.84,3.72,3.72,0,0,0,4-.84L156,1.76,157.81,0H147.3Z"/><path class="cls-4" d="M636.06,0,614.45,21.61,588.22,47.84a3.72,3.72,0,1,0,5.26,5.26l23-23L646.57,0Z"/><path class="cls-7" d="M209.07,116.74l28.66-28.66A6.87,6.87,0,1,0,228,78.36L199.35,107a6.87,6.87,0,1,0,9.72,9.72Z"/><path class="cls-7" d="M729.49,96.76a12.09,12.09,0,0,0-3.74-2.54,12.25,12.25,0,0,0-13.54,2.54l-50.93,50.93A12.22,12.22,0,0,0,678.56,165l5-5L729.49,114A12.25,12.25,0,0,0,729.49,96.76Z"/><path class="cls-7" d="M424.33,65.85,416.17,74a8.13,8.13,0,1,0,11.5,11.5l8.16-8.16a8.13,8.13,0,1,0-11.5-11.5Z"/><path class="cls-6" d="M604.44,97.71a8.16,8.16,0,0,0,9.7,1.35,8.06,8.06,0,0,0,1.81-1.35l8.16-8.16a8.13,8.13,0,0,0-11.5-11.5l-7.14,7.14-1,1A8.16,8.16,0,0,0,604.44,97.71Z"/><path class="cls-5" d="M1065.47,800.37a8.28,8.28,0,0,0-11.68,0L825.72,1028.44a8.26,8.26,0,0,0,11.68,11.68l228.06-228.06A8.28,8.28,0,0,0,1065.47,800.37Z"/><path class="cls-9" d="M899.42,835.58l-50.93,50.93a12.22,12.22,0,0,0,17.28,17.28l50.93-50.93a12.22,12.22,0,0,0-17.28-17.28Z"/><path class="cls-6" d="M669.65,809.68l-29.57,29.57a7.09,7.09,0,0,0,10,10l29.57-29.57a7.09,7.09,0,0,0-10-10Z"/><path class="cls-9" d="M607.93,1080h5.17A3.72,3.72,0,0,0,607.93,1080Z"/><path class="cls-4" d="M764.14,959.93l-66,66a3.72,3.72,0,1,0,5.26,5.26l66-66a3.72,3.72,0,0,0-5.26-5.26Z"/><path class="cls-7" d="M1134.54,729.7,1163.2,701a6.87,6.87,0,1,0-9.72-9.72L1124.82,720a6.87,6.87,0,1,0,9.72,9.72Z"/><path class="cls-4" d="M647.48,913.13l-28.66,28.66a6.87,6.87,0,0,0,9.72,9.72l28.66-28.66a6.87,6.87,0,1,0-9.72-9.72Z"/><path class="cls-5" d="M983.31,712.88,975.15,721a8.13,8.13,0,0,0,11.5,11.5l8.16-8.16a8.13,8.13,0,0,0-11.5-11.5Z"/><path class="cls-7" d="M830,984.86l8.16-8.16a8.13,8.13,0,0,0-11.5-11.5l-8.16,8.16a8.13,8.13,0,0,0,11.5,11.5Z"/><path class="cls-4" d="M862.61,748.91a3.73,3.73,0,0,0-5.26,0L745.2,861.06a3.72,3.72,0,1,0,5.26,5.26L862.61,754.17A3.73,3.73,0,0,0,862.61,748.91Z"/><path class="cls-7" d="M642.61,1029.24l-8.16,8.16a8.13,8.13,0,1,0,11.5,11.5l8.16-8.16a8.13,8.13,0,0,0-11.5-11.5Z"/><path class="cls-6" d="M722.49,1056.17l-8.16,8.16a8.13,8.13,0,0,0,11.5,11.5l8.16-8.16a8.13,8.13,0,1,0-11.5-11.5Z"/><path class="cls-5" d="M39,5.07a8.28,8.28,0,0,0,11.68,0L55.7,0H36.58A8.21,8.21,0,0,0,39,5.07Z"/><path class="cls-5" d="M1878.93,703.16a8.26,8.26,0,0,0,11.68,11.68L1919.43,686l.57-.57V662.09l-.57.57Z"/><path class="cls-9" d="M1901.7,561.23a12.25,12.25,0,0,0,0,17.28h0a12.25,12.25,0,0,0,17.28,0l.44-.44.57-.57V542.94l-.57.57Z"/><path class="cls-6" d="M1760.11,511.77a9.92,9.92,0,0,0,0-14.2,10.45,10.45,0,0,0-14.51,0l-42.77,41.85a9.92,9.92,0,0,0,0,14.2,10.45,10.45,0,0,0,14.51,0Z"/><path class="cls-9" d="M1661.1,754.76l-66,66a3.72,3.72,0,0,0,5.26,5.26l66-66a3.72,3.72,0,0,0-5.26-5.26Z"/><path class="cls-9" d="M1817.36,634.66l-66,66a3.72,3.72,0,0,0,5.26,5.26l66-66a3.72,3.72,0,1,0-5.26-5.26Z"/><path class="cls-4" d="M1754.16,601.69a6.89,6.89,0,0,0-9.72,0l-28.66,28.66a6.87,6.87,0,0,0,9.72,9.72l28.66-28.66A6.89,6.89,0,0,0,1754.16,601.69Z"/><path class="cls-7" d="M1879.85,639.92l-8.16,8.16a8.13,8.13,0,1,0,11.5,11.5l8.16-8.16a8.13,8.13,0,1,0-11.5-11.5Z"/><path class="cls-4" d="M1798.41,541a3.73,3.73,0,0,0,5.26,0l112.15-112.15a3.72,3.72,0,0,0-5.26-5.26L1798.41,535.79A3.73,3.73,0,0,0,1798.41,541Z"/><path class="cls-7" d="M1692.92,696.32l-8.16,8.16a8.13,8.13,0,1,0,11.5,11.5l8.16-8.16a8.13,8.13,0,1,0-11.5-11.5Z"/><path class="cls-7" d="M1766,771.58a8.16,8.16,0,0,0-11.5,0l-8.16,8.16a8.13,8.13,0,1,0,11.5,11.5l8.16-8.16A8.16,8.16,0,0,0,1766,771.58Z"/><path class="cls-5" d="M114.68,721A8.26,8.26,0,1,0,103,709.33L0,812.33v23.36Z"/><path class="cls-9" d="M91.91,845.66h0a12.25,12.25,0,0,0-17.28,0L23.7,896.59a12.25,12.25,0,0,0,0,17.28h0a12.25,12.25,0,0,0,17.28,0l50.93-50.93A12.25,12.25,0,0,0,91.91,845.66Z"/><path class="cls-6" d="M276.27,870.55,233.5,912.4a9.92,9.92,0,0,0,0,14.2,10.45,10.45,0,0,0,14.51,0l42.77-41.85a9.92,9.92,0,0,0,0-14.2A10.45,10.45,0,0,0,276.27,870.55Z"/><path class="cls-9" d="M393.29,598.13l-66,66a3.72,3.72,0,0,0,5.26,5.26l66-66a3.72,3.72,0,1,0-5.26-5.26Z"/><path class="cls-9" d="M242.29,718.23a3.73,3.73,0,0,0-5.26,0l-66,66a3.72,3.72,0,1,0,5.26,5.26l66-66A3.73,3.73,0,0,0,242.29,718.23Z"/><path class="cls-4" d="M239.46,822.48a6.89,6.89,0,0,0,9.72,0l28.66-28.66a6.87,6.87,0,0,0-9.72-9.72l-28.66,28.66A6.89,6.89,0,0,0,239.46,822.48Z"/><path class="cls-7" d="M113.77,784.25l8.16-8.16a8.13,8.13,0,0,0-11.5-11.5l-8.16,8.16a8.13,8.13,0,0,0,11.5,11.5Z"/><path class="cls-4" d="M195.2,883.13a3.73,3.73,0,0,0-5.26,0L77.79,995.28a3.72,3.72,0,0,0,5.26,5.26L195.2,888.38A3.73,3.73,0,0,0,195.2,883.13Z"/><path class="cls-7" d="M297.36,708.19l-8.16,8.16a8.13,8.13,0,0,0,11.5,11.5l8.16-8.16a8.13,8.13,0,0,0-11.5-11.5Z"/><path class="cls-7" d="M239.12,652.59l8.16-8.16a8.13,8.13,0,0,0-11.5-11.5l-8.16,8.16a8.13,8.13,0,0,0,11.5,11.5Z"/><path class="cls-5" d="M1887.43,89.44a8.26,8.26,0,1,0,11.68,11.68l20.31-20.31.57-.57V56.88l-.57.57Z"/><path class="cls-9" d="M1669.6,141l-66,66a3.72,3.72,0,1,0,5.26,5.26l66-66a3.72,3.72,0,0,0-5.26-5.26Z"/><path class="cls-9" d="M1765.09,92.22l66-66a3.72,3.72,0,0,0-5.26-5.26l-66,66a3.72,3.72,0,0,0,5.26,5.26Z"/><path class="cls-4" d="M1724.28,16.63a6.87,6.87,0,0,0,9.72,9.72L1760.35,0h-19.44Z"/><path class="cls-7" d="M1891.69,45.86l8.16-8.16a8.13,8.13,0,0,0-11.5-11.5l-8.16,8.16a8.13,8.13,0,0,0,11.5,11.5Z"/><path class="cls-7" d="M1704.76,102.26l8.16-8.16a8.13,8.13,0,0,0-11.5-11.5l-8.16,8.16a8.13,8.13,0,1,0,11.5,11.5Z"/><path class="cls-7" d="M1766.33,177.52l8.16-8.16a8.13,8.13,0,0,0-11.5-11.5l-8.16,8.16a8.13,8.13,0,1,0,11.5,11.5Z"/><path class="cls-5" d="M1123.13,37a8.26,8.26,0,0,0,11.68,11.68L1183.53,0h-23.36Z"/><path class="cls-5" d="M944.37,218.9h0a8.28,8.28,0,0,0,11.68,0l51.45-51.45a8.26,8.26,0,0,0-11.68-11.68l-51.45,51.45A8.28,8.28,0,0,0,944.37,218.9Z"/><path class="cls-9" d="M844.52,159.92l66-66a3.73,3.73,0,0,0,0-5.26h0a3.73,3.73,0,0,0-5.26,0l-66,66a3.72,3.72,0,1,0,5.26,5.26Z"/><path class="cls-4" d="M995.52,34.57a3.72,3.72,0,0,0,5.26,5.26L1040.6,0h-10.51Z"/><path class="cls-7" d="M943.36,57.5l8.16-8.16A8.13,8.13,0,0,0,940,37.84L931.86,46a8.13,8.13,0,0,0,11.5,11.5Z"/><path class="cls-6" d="M1023.24,84.44l8.16-8.16a8.13,8.13,0,1,0-11.5-11.5l-8.16,8.16a8.13,8.13,0,0,0,11.5,11.5Z"/><path class="cls-6" d="M1813.87,805.33,1784.3,834.9a7.09,7.09,0,1,0,10,10l29.57-29.57a7.09,7.09,0,0,0-10-10Z"/><path class="cls-9" d="M1757.36,1075.68a3.73,3.73,0,0,0-5.26,0l-4.32,4.32H1758A3.72,3.72,0,0,0,1757.36,1075.68Z"/><path class="cls-4" d="M1913.62,955.58a3.73,3.73,0,0,0-5.26,0l-66,66a3.72,3.72,0,0,0,5.26,5.26l66-66A3.73,3.73,0,0,0,1913.62,955.58Z"/><path class="cls-4" d="M1791.7,908.77,1763,937.43a6.87,6.87,0,0,0,9.72,9.72l28.66-28.66a6.87,6.87,0,1,0-9.72-9.72Z"/><path class="cls-4" d="M1889.42,856.71a3.72,3.72,0,0,0,5.26,5.26l24.75-24.75.57-.57V826.12l-.57.57Z"/><path class="cls-7" d="M1786.83,1024.88l-8.16,8.16a8.13,8.13,0,0,0,11.5,11.5l8.16-8.16a8.13,8.13,0,0,0-11.5-11.5Z"/><path class="cls-6" d="M1866.71,1051.81l-8.16,8.16a8.13,8.13,0,0,0,11.5,11.5l8.16-8.16a8.13,8.13,0,0,0-11.5-11.5Z"/><path class="cls-9" d="M1317.93,126.83a12.25,12.25,0,0,0,17.28,0l50.93-50.93a12.22,12.22,0,0,0-17.28-17.28l-50.93,50.93a12.25,12.25,0,0,0,0,17.28Z"/><path class="cls-6" d="M1588.16,122.38,1558.59,152a7.09,7.09,0,0,0,10,10l29.57-29.57a7.09,7.09,0,0,0-10-10Z"/><path class="cls-7" d="M1227,123.46l28.66-28.66a6.87,6.87,0,0,0-9.72-9.72l-28.66,28.66a6.87,6.87,0,0,0,9.72,9.72Z"/><path class="cls-4" d="M1590.79,58.54l28.66-28.66a6.87,6.87,0,0,0-9.72-9.72l-28.66,28.66a6.87,6.87,0,0,0,9.72,9.72Z"/><path class="cls-4" d="M1375.66,222.76a3.73,3.73,0,0,0,5.26,0l112.15-112.15a3.72,3.72,0,0,0-5.26-5.26L1375.66,217.51A3.73,3.73,0,0,0,1375.66,222.76Z"/><path class="cls-9" d="M237.06,1043.84a12.22,12.22,0,0,0-17.28-17.28l-50.93,50.93a12,12,0,0,0-1.92,2.51h34Z"/><path class="cls-9" d="M542.07,788.28l-66,66a3.72,3.72,0,0,0,5.26,5.26l66-66a3.72,3.72,0,0,0-5.26-5.26Z"/><path class="cls-4" d="M378.9,885l-66,66a3.72,3.72,0,1,0,5.26,5.26l66-66A3.72,3.72,0,0,0,378.9,885Z"/><path class="cls-7" d="M106.61,1062.73a6.87,6.87,0,0,0-9.72-9.72l-27,27H89.34Z"/><path class="cls-4" d="M460.64,988.09,432,1016.75a6.87,6.87,0,0,0,9.72,9.72l28.66-28.66a6.87,6.87,0,0,0-9.72-9.72Z"/><path class="cls-7" d="M189.08,909.73l-8.16,8.16a8.13,8.13,0,0,0,11.5,11.5l8.16-8.16a8.13,8.13,0,1,0-11.5-11.5Z"/><path class="cls-4" d="M344,1078.54a3.72,3.72,0,1,0-5.26-5.26L332,1080h10.51Z"/><path class="cls-7" d="M443.23,890.71l-8.16,8.16a8.13,8.13,0,1,0,11.5,11.5l8.16-8.16a8.13,8.13,0,0,0-11.5-11.5Z"/><path class="cls-6" d="M346.75,826.22l8.16-8.16a8.13,8.13,0,0,0-11.5-11.5l-8.16,8.16a8.13,8.13,0,0,0,11.5,11.5Z"/></svg>